<svg width="20" height="14" viewBox="0 0 20 14" fill="none" xmlns="http://www.w3.org/2000/svg">
<path d="M11.6337 2.48418C11.733 2.26011 11.7924 2.01311 11.7924 1.75C11.7924 0.785069 11.0459 0 10.128 0C9.21036 0 8.46373 0.785069 8.46373 1.75C8.46373 2.01311 8.52311 2.26011 8.6225 2.48418C4.92895 3.1977 2.08849 6.47956 1.83465 10.5H18.4216C18.1676 6.47956 15.3273 3.1977 11.6337 2.48418ZM10.128 2.33333C9.82205 2.33333 9.57327 2.0719 9.57327 1.75C9.57327 1.4281 9.82205 1.16667 10.128 1.16667C10.4342 1.16667 10.6828 1.4281 10.6828 1.75C10.6828 2.0719 10.4342 2.33333 10.128 2.33333Z" fill="#FAFAFA"/>
<path d="M0.659668 11.6667C0.917405 12.9963 2.1314 14 3.47079 14H16.7853C18.1248 14 19.3381 12.9963 19.5958 11.6667H0.659668Z" fill="#FAFAFA"/>
</svg>
